# xmcd
# 
# Track frame offsets:
#     150
#     22916
#     56392
#     76008
#     97444
#     127139
#     145701
#     169745
#     190271
#     200560
#     220175
#     237129
#     255147
# 
# Disc length: 3672
# 
# Revision: 2
# Processed by: cddbd v1.5.2PL0 Copyright (c) Steve Scherf et al.
# Submitted via: BonkEnc v1.0.5
# 
DISCID=ac0e560d
DTITLE=Kyau and Albert - Worldvibe CD1
DYEAR=2006
DGENRE=Dance
TTITLE0=Walk Down
TTITLE1=Always A Fool
TTITLE2=Kiksu
TTITLE3=Run
TTITLE4=Are You Fine?
TTITLE5=Metrosun
TTITLE6=The Jitters
TTITLE7=7Skies
TTITLE8=Our Own Devices
TTITLE9=Riding On A Star
TTITLE10=Hide and Seek
TTITLE11=Teddybears
TTITLE12=Hooked On Infinity
EXTD=
EXTT0=
EXTT1=
EXTT2=
EXTT3=
EXTT4=
EXTT5=
EXTT6=
EXTT7=
EXTT8=
EXTT9=
EXTT10=
EXTT11=
EXTT12=
PLAYORDER=
